{
	"asset":{
		"generator":"Khronos glTF Blender I/O v4.1.63",
		"version":"2.0"
	},
	"extensionsUsed":[
		"KHR_materials_specular"
	],
	"scene":0,
	"scenes":[
		{
			"name":"Scene",
			"nodes":[
				0
			]
		}
	],
	"nodes":[
		{
			"mesh":0,
			"name":"textured_output",
			"rotation":[
				-0.7071068286895752,
				0,
				0,
				0.7071068286895752
			],
			"translation":[
				0,
				0.3100000023841858,
				0
			]
		}
	],
	"materials":[
		{
			"doubleSided":true,
			"extensions":{
				"KHR_materials_specular":{
					"specularFactor":0
				}
			},
			"name":"material_0",
			"pbrMetallicRoughness":{
				"baseColorTexture":{
					"index":0
				},
				"metallicFactor":0,
				"roughnessFactor":0.9683772325515747
			}
		}
	],
	"meshes":[
		{
			"name":"textured_output",
			"primitives":[
				{
					"attributes":{
						"POSITION":0,
						"NORMAL":1,
						"TEXCOORD_0":2
					},
					"indices":3,
					"material":0
				}
			]
		}
	],
	"textures":[
		{
			"sampler":0,
			"source":0
		}
	],
	"images":[
		{
			"mimeType":"image/jpeg",
			"name":"textured_output",
			"uri":"textured_output.jpg"
		}
	],
	"accessors":[
		{
			"bufferView":0,
			"componentType":5126,
			"count":508318,
			"max":[
				4.09499979019165,
				3.250999927520752,
				2.0409998893737793
			],
			"min":[
				-2.924999952316284,
				-2.430999994277954,
				-2.11899995803833
			],
			"type":"VEC3"
		},
		{
			"bufferView":1,
			"componentType":5126,
			"count":508318,
			"type":"VEC3"
		},
		{
			"bufferView":2,
			"componentType":5126,
			"count":508318,
			"type":"VEC2"
		},
		{
			"bufferView":3,
			"componentType":5125,
			"count":511467,
			"type":"SCALAR"
		}
	],
	"bufferViews":[
		{
			"buffer":0,
			"byteLength":6099816,
			"byteOffset":0,
			"target":34962
		},
		{
			"buffer":0,
			"byteLength":6099816,
			"byteOffset":6099816,
			"target":34962
		},
		{
			"buffer":0,
			"byteLength":4066544,
			"byteOffset":12199632,
			"target":34962
		},
		{
			"buffer":0,
			"byteLength":2045868,
			"byteOffset":16266176,
			"target":34963
		}
	],
	"samplers":[
		{
			"magFilter":9729,
			"minFilter":9987
		}
	],
	"buffers":[
		{
			"byteLength":18312044,
			"uri":"taxi_3d_scan.bin"
		}
	]
}
