{
	"asset":{
		"generator":"Khronos glTF Blender I/O v4.1.63",
		"version":"2.0"
	},
	"extensionsUsed":[
		"KHR_materials_transmission",
		"KHR_materials_specular"
	],
	"scene":0,
	"scenes":[
		{
			"name":"Scene",
			"nodes":[
				0
			]
		}
	],
	"nodes":[
		{
			"mesh":0,
			"name":"13914_Taxi_v2_L1",
			"rotation":[
				0.010598041117191315,
				0,
				0,
				0.9999438524246216
			],
			"scale":[
				0.028566693887114525,
				0.028566697612404823,
				0.028566697612404823
			],
			"translation":[
				0,
				0.8695612549781799,
				0
			]
		}
	],
	"materials":[
		{
			"doubleSided":true,
			"extensions":{
				"KHR_materials_transmission":{
					"transmissionFactor":1
				},
				"KHR_materials_specular":{
					"specularFactor":0.8999999165534973
				}
			},
			"name":"13914_Taxi_parts.001",
			"pbrMetallicRoughness":{
				"baseColorTexture":{
					"index":0
				},
				"metallicFactor":0,
				"roughnessFactor":0.8585786819458008
			}
		},
		{
			"doubleSided":true,
			"extensions":{
				"KHR_materials_transmission":{
					"transmissionFactor":1
				},
				"KHR_materials_specular":{
					"specularFactor":0.8999999165534973
				}
			},
			"name":"13914_Taxi_tyre.001",
			"pbrMetallicRoughness":{
				"baseColorTexture":{
					"index":1
				},
				"metallicFactor":0,
				"roughnessFactor":0.8585786819458008
			}
		},
		{
			"doubleSided":true,
			"extensions":{
				"KHR_materials_transmission":{
					"transmissionFactor":1
				},
				"KHR_materials_specular":{
					"specularFactor":0.8999999165534973
				}
			},
			"name":"13914_Taxi_car.001",
			"pbrMetallicRoughness":{
				"baseColorTexture":{
					"index":2
				},
				"metallicFactor":0,
				"roughnessFactor":0.8585786819458008
			}
		}
	],
	"meshes":[
		{
			"name":"13914_Taxi_v2_L1.001",
			"primitives":[
				{
					"attributes":{
						"POSITION":0,
						"NORMAL":1,
						"TEXCOORD_0":2
					},
					"indices":3,
					"material":0
				},
				{
					"attributes":{
						"POSITION":4,
						"NORMAL":5,
						"TEXCOORD_0":6
					},
					"indices":7,
					"material":1
				},
				{
					"attributes":{
						"POSITION":8,
						"NORMAL":9,
						"TEXCOORD_0":10
					},
					"indices":11,
					"material":2
				}
			]
		}
	],
	"textures":[
		{
			"sampler":0,
			"source":0
		},
		{
			"sampler":0,
			"source":1
		},
		{
			"sampler":0,
			"source":2
		}
	],
	"images":[
		{
			"mimeType":"image/jpeg",
			"name":"13914_Taxi_parts",
			"uri":"13914_Taxi_parts.jpg"
		},
		{
			"mimeType":"image/jpeg",
			"name":"13914_Taxi_tyre_diffuse",
			"uri":"13914_Taxi_tyre_diffuse.jpg"
		},
		{
			"mimeType":"image/jpeg",
			"name":"13914_Taxi_car_diffuse",
			"uri":"13914_Taxi_car_diffuse.jpg"
		}
	],
	"accessors":[
		{
			"bufferView":0,
			"componentType":5126,
			"count":10641,
			"max":[
				259.9704895019531,
				173.99339294433594,
				69.99120330810547
			],
			"min":[
				-270.3869934082031,
				30.153799057006836,
				-69.99120330810547
			],
			"type":"VEC3"
		},
		{
			"bufferView":1,
			"componentType":5126,
			"count":10641,
			"type":"VEC3"
		},
		{
			"bufferView":2,
			"componentType":5126,
			"count":10641,
			"type":"VEC2"
		},
		{
			"bufferView":3,
			"componentType":5123,
			"count":54816,
			"type":"SCALAR"
		},
		{
			"bufferView":4,
			"componentType":5126,
			"count":29680,
			"max":[
				159.0904998779297,
				68.86090087890625,
				96.4188003540039
			],
			"min":[
				-196.9873046875,
				0.373199999332428,
				-96.4188003540039
			],
			"type":"VEC3"
		},
		{
			"bufferView":5,
			"componentType":5126,
			"count":29680,
			"type":"VEC3"
		},
		{
			"bufferView":6,
			"componentType":5126,
			"count":29680,
			"type":"VEC2"
		},
		{
			"bufferView":7,
			"componentType":5123,
			"count":170880,
			"type":"SCALAR"
		},
		{
			"bufferView":8,
			"componentType":5126,
			"count":45744,
			"max":[
				266.1012878417969,
				162.5102996826172,
				111.4437026977539
			],
			"min":[
				-268.3951110839844,
				17.018800735473633,
				-111.4437026977539
			],
			"type":"VEC3"
		},
		{
			"bufferView":9,
			"componentType":5126,
			"count":45744,
			"type":"VEC3"
		},
		{
			"bufferView":10,
			"componentType":5126,
			"count":45744,
			"type":"VEC2"
		},
		{
			"bufferView":11,
			"componentType":5123,
			"count":256128,
			"type":"SCALAR"
		}
	],
	"bufferViews":[
		{
			"buffer":0,
			"byteLength":127692,
			"byteOffset":0,
			"target":34962
		},
		{
			"buffer":0,
			"byteLength":127692,
			"byteOffset":127692,
			"target":34962
		},
		{
			"buffer":0,
			"byteLength":85128,
			"byteOffset":255384,
			"target":34962
		},
		{
			"buffer":0,
			"byteLength":109632,
			"byteOffset":340512,
			"target":34963
		},
		{
			"buffer":0,
			"byteLength":356160,
			"byteOffset":450144,
			"target":34962
		},
		{
			"buffer":0,
			"byteLength":356160,
			"byteOffset":806304,
			"target":34962
		},
		{
			"buffer":0,
			"byteLength":237440,
			"byteOffset":1162464,
			"target":34962
		},
		{
			"buffer":0,
			"byteLength":341760,
			"byteOffset":1399904,
			"target":34963
		},
		{
			"buffer":0,
			"byteLength":548928,
			"byteOffset":1741664,
			"target":34962
		},
		{
			"buffer":0,
			"byteLength":548928,
			"byteOffset":2290592,
			"target":34962
		},
		{
			"buffer":0,
			"byteLength":365952,
			"byteOffset":2839520,
			"target":34962
		},
		{
			"buffer":0,
			"byteLength":512256,
			"byteOffset":3205472,
			"target":34963
		}
	],
	"samplers":[
		{
			"magFilter":9729,
			"minFilter":9987
		}
	],
	"buffers":[
		{
			"byteLength":3717728,
			"uri":"taxi.bin"
		}
	]
}
